<svg width="64" height="64" viewBox="0 0 64 64" fill="none" xmlns="http://www.w3.org/2000/svg">
<path d="M32 0C25.671 0 19.4841 1.87677 14.2218 5.39297C8.95939 8.90918 4.85787 13.9069 2.43587 19.7541C0.0138649 25.6014 -0.619841 32.0355 0.614885 38.2429C1.84961 44.4503 4.89732 50.1521 9.3726 54.6274C13.8479 59.1027 19.5497 62.1504 25.7571 63.3851C31.9645 64.6198 38.3986 63.9861 44.2459 61.5641C50.0931 59.1421 55.0908 55.0406 58.607 49.7782C62.1232 44.5159 64 38.329 64 32C64 27.7977 63.1723 23.6365 61.5641 19.7541C59.956 15.8717 57.5989 12.3441 54.6274 9.37258C51.6559 6.40111 48.1283 4.044 44.2459 2.43585C40.3635 0.827704 36.2023 0 32 0V0ZM32 58.3859C26.8062 58.3859 21.7291 56.8458 17.4106 53.9603C13.0921 51.0748 9.72627 46.9735 7.7387 42.175C5.75112 37.3766 5.23108 32.0965 6.24434 27.0025C7.2576 21.9086 9.75864 17.2294 13.4312 13.5569C17.1038 9.8843 21.7829 7.38326 26.8769 6.37C31.9709 5.35674 37.2509 5.87678 42.0494 7.86436C46.8478 9.85193 50.9491 13.2178 53.8346 17.5363C56.7201 21.8547 58.2603 26.9319 58.2603 32.1257C58.2603 35.5742 57.581 38.989 56.2613 42.175C54.9416 45.3611 53.0073 48.256 50.5688 50.6945C48.1303 53.133 45.2354 55.0673 42.0494 56.387C38.8633 57.7067 35.4485 58.3859 32 58.3859V58.3859Z" fill="white" fill-opacity="0.9"/>
<path d="M44.4965 47.5667C44.2306 47.9088 43.8949 48.1904 43.5118 48.3929C43.1286 48.5953 42.7068 48.7139 42.2743 48.7409C41.8418 48.7679 41.4086 48.7025 41.0033 48.5492C40.598 48.396 40.2299 48.1582 39.9235 47.8518L28.0351 35.9615C27.9751 35.9015 27.9094 35.849 27.8475 35.7946C26.9641 35.063 26.829 33.1873 26.829 33.1385V15.0058C26.8212 14.2222 27.1106 13.4647 27.6389 12.8859C28.1673 12.3071 28.8953 11.95 29.6764 11.8865C30.0938 11.8582 30.5125 11.916 30.9067 12.0563C31.3008 12.1966 31.6619 12.4164 31.9676 12.702C32.2732 12.9876 32.517 13.333 32.6836 13.7167C32.8503 14.1005 32.9363 14.5143 32.9364 14.9327V31.5048C32.9369 31.9713 33.1224 32.4185 33.4522 32.7484L44.1983 43.4945C44.7334 44.0216 45.0587 44.7253 45.1136 45.4745C45.1685 46.2236 44.9492 46.9672 44.4965 47.5667V47.5667Z" fill="white" fill-opacity="0.9"/>
</svg>
