<svg width="150" height="250" viewBox="0 0 150 250" fill="none" xmlns="http://www.w3.org/2000/svg">
<path d="M0.963379 0.128418V249.448H149.374V0.128418H0.963379ZM140.977 237.729H9.36118V11.8389H140.977V237.729Z" fill="#0B0C21"/>
<path d="M13.6703 17.8315V231.745H136.668V17.8315H13.6703ZM29.5318 138.789C28.1528 138.809 26.7991 138.414 25.6431 137.656C24.4871 136.899 23.5809 135.811 23.0397 134.533C22.4986 133.255 22.347 131.844 22.6042 130.479C22.8615 129.113 23.5159 127.856 24.4842 126.867C25.4526 125.877 26.6912 125.2 28.0425 124.922C29.3937 124.644 30.7966 124.777 32.0727 125.304C33.3488 125.831 34.4404 126.729 35.2087 127.883C35.9771 129.037 36.3874 130.395 36.3875 131.784C36.3968 132.699 36.2266 133.606 35.8865 134.453C35.5465 135.301 35.0434 136.073 34.4062 136.724C33.769 137.375 33.0103 137.893 32.1738 138.247C31.3372 138.602 30.4393 138.786 29.5318 138.789V138.789Z" fill="#0B0C21"/>
</svg>
