<svg width="40" height="40" viewBox="0 0 40 40" fill="none" xmlns="http://www.w3.org/2000/svg">
<path d="M23.5871 0.803871C22.5731 0.736717 21.5561 0.729359 20.5412 0.781834C17.7232 0.854376 14.9392 1.41574 12.3131 2.44094C9.11756 3.68416 6.32163 5.77625 4.22658 8.4918C0.428737 13.466 -0.49319 19.1107 0.705631 25.1269C1.72195 30.1924 4.48144 34.1088 9.01557 36.6935C12.1904 38.5037 15.6704 39.1459 19.27 39.2404C22.8548 39.3302 26.4297 38.8238 29.8486 37.7418C31.7022 37.1395 33.4672 36.2925 35.097 35.2232L32.4036 31.31C32.3123 31.3449 32.223 31.3849 32.1361 31.4297C29.6276 33.0333 26.7908 34.0522 23.8356 34.411C20.7206 34.8108 17.6433 34.7258 14.6541 33.6743C11.0451 32.3899 8.39885 30.0507 6.87909 26.5027C5.73512 23.7397 5.41493 20.7044 5.95716 17.7633C6.69973 13.2865 9.03445 9.86127 12.9739 7.62604C16.9888 5.34674 21.3184 4.98469 25.7802 5.86934C28.1495 6.33528 30.264 7.33956 31.8655 9.20644C34.6502 12.4491 35.3267 16.186 34.2758 20.263C33.7314 22.41 32.671 24.2549 30.8366 25.5771C30.0563 26.1375 29.2099 26.5657 28.2061 26.5216C28.0784 26.53 27.9503 26.5116 27.8301 26.4675C27.7099 26.4235 27.6002 26.3548 27.5081 26.2659C27.4159 26.177 27.3434 26.0698 27.2951 25.9512C27.2468 25.8326 27.2238 25.7052 27.2276 25.5771C27.2092 25.1197 27.2548 24.6619 27.3629 24.2171C28.4474 20.1538 29.5445 16.0937 30.6541 12.0367C30.8681 11.2591 31.0883 10.4846 31.3086 9.70386C31.2463 9.67455 31.1808 9.65238 31.1135 9.63775C29.5403 9.63775 27.967 9.62201 26.3937 9.63775C26.3079 9.65798 26.2274 9.6966 26.1579 9.75095C26.0883 9.8053 26.0314 9.87409 25.991 9.95257C25.8588 10.2889 25.7464 10.6326 25.6543 10.982L25.5285 11.0324C25.5077 10.9668 25.4803 10.9035 25.4466 10.8435C24.3863 9.21589 22.8193 8.6681 20.9566 8.63977C17.6999 8.63662 15.1701 10.0974 13.2036 12.5561C10.3874 16.0821 9.39629 20.1528 10.0256 24.6012C10.2506 26.4977 11.2096 28.2304 12.697 29.4274C15.189 31.4328 19.764 31.3887 22.2781 28.7978C22.4952 28.5742 22.7249 28.3633 22.9955 28.0957C23.2252 29.7831 24.2541 30.6332 25.711 30.9291C26.6891 31.1245 27.693 31.1554 28.6813 31.0204C32.2588 30.5009 35.0278 28.612 37.0856 25.6968C39.4832 22.2841 40.2321 18.437 39.6406 14.3632C38.8791 9.13718 36.0378 5.33415 31.3904 2.90058C30.1633 2.26779 26.5951 1.03054 23.5871 0.803871ZM23.9206 16.334C23.7891 18.8347 23.0701 21.2691 21.8219 23.4395C21.117 24.6799 20.214 25.7629 18.7823 26.2288C17.1682 26.7514 15.8938 26.0714 15.4565 24.4406C15.3351 23.9993 15.2696 23.5445 15.2614 23.0869C15.2662 20.4224 15.9985 17.8098 17.379 15.5312C17.9026 14.5875 18.6943 13.8206 19.6539 13.3274C20.9125 12.6978 22.2529 12.7828 23.0679 13.5919C23.8262 14.3632 23.9678 15.3234 23.9206 16.334Z" fill="black"/>
</svg>
