<svg width="145" height="172" viewBox="0 0 145 172" fill="none" xmlns="http://www.w3.org/2000/svg">
<path d="M77.9024 117.252H86.5487C86.9973 113.414 87.2624 109.541 87.9353 105.739C89.7706 95.3403 93.5228 85.5781 102.536 78.0973C109.898 72.0313 118.401 68.4059 128.679 72.4558C139.711 76.7886 144.87 84.6762 144.748 94.9335C144.646 104.377 139.14 111.045 129.066 114.741C126.864 115.554 124.56 116.138 121.399 117.093C121.848 115.148 122.113 113.998 122.398 112.831C123.601 107.649 121.073 102.379 116.525 100.628C113.799 99.4904 110.682 99.2692 107.779 100.007C104.875 100.746 102.39 102.391 100.803 104.625C97.7239 108.387 96.2792 112.973 96.7244 117.57C100.415 117.57 103.902 117.57 107.389 117.57C109.714 117.482 110.734 118.207 110.652 120.276C110.499 122.803 110.499 125.336 110.652 127.863C110.856 130.463 109.755 131.4 106.696 131.4C99.7832 131.259 92.8498 131.4 85.9165 131.4H81.3283C81.3283 139.482 86.8341 143.78 93.8287 147.458C93.2377 149.357 92.0922 151.092 90.5026 152.496C88.9131 153.899 86.9332 154.923 84.7541 155.47C83.53 155.632 82.4062 156.152 81.5684 156.943C80.7306 157.733 80.2287 158.748 80.1455 159.82C79.0124 164.37 76.3013 168.511 72.3761 171.687C68.1664 168.258 65.3118 163.765 64.2192 158.847C64.1769 158.025 63.8056 157.242 63.1691 156.632C62.5327 156.022 61.6709 155.623 60.7321 155.505C56.1643 154.603 53.2686 151.968 50.9439 147.264C57.918 143.921 63.1792 139.358 63.7298 131.241H56.0419C49.9243 131.241 43.6435 131.241 37.4442 131.241C35.0787 131.241 34.1611 130.569 34.2223 128.517C34.3446 124.98 34.2223 121.443 34.2223 117.447H48.4968C48.0074 110.921 46.2741 105.368 40.3399 101.53C38.5859 100.356 36.4704 99.6595 34.2602 99.5273C32.0501 99.3951 29.8443 99.8335 27.9211 100.787C26.1605 101.549 24.6876 102.731 23.676 104.194C22.6644 105.657 22.1561 107.341 22.2113 109.046C22.2682 111.559 22.4724 114.068 22.823 116.562C17.7774 116.045 13.0044 114.298 9.05829 111.522C0.534351 105.774 -2.25939 95.4994 1.90062 85.6842C5.81593 76.4703 15.6246 70.2982 26.0858 70.9525C33.9572 71.43 39.9321 75.3384 44.8262 80.361C52.4325 88.2132 55.6545 97.6393 57.2247 107.596C57.4694 109.17 57.5713 110.744 57.7753 112.318C58.5094 118.048 58.5094 118.048 66.3196 117.022C66.0545 112.442 66.0137 107.755 65.4631 103.104C64.2192 92.493 59.631 82.7308 55.6749 72.7741C53.0443 66.1245 49.8631 59.5103 48.558 52.6485C45.8866 38.076 51.5964 25.0067 60.7117 12.9808C64.0561 8.54189 68.1753 4.52738 72.2333 0C79.4357 6.13738 85.4167 13.2665 89.9338 21.0983C95.5008 30.9666 98.5393 41.33 96.602 52.3125C95.4008 57.3383 93.7508 62.2755 91.6671 67.0795C88.1189 76.6825 83.8569 86.144 81.002 95.9062C79.0239 102.644 78.922 109.807 77.9024 117.252Z" fill="#2A44CC"/>
</svg>
