<svg width="73" height="61" viewBox="0 0 73 61" fill="none" xmlns="http://www.w3.org/2000/svg">
<path d="M72.9988 44.3869C72.9988 34.316 72.9988 24.2448 72.9988 14.1732V13.6417H-0.000108616V14.1874C-0.000108616 19.5473 -0.000108616 24.9069 -0.000108616 30.2661C-0.000108616 38.1484 -0.000108616 46.0304 -0.000108616 53.9121C-0.00836425 54.1569 -0.00397092 54.4021 0.013054 54.6465C0.406836 58.3876 3.32455 60.8671 6.46713 60.8344C12.0821 60.7853 17.696 60.8224 23.3109 60.8202C30.3156 60.8202 37.3207 60.8169 44.3262 60.8104C51.7711 60.8104 59.2164 60.8133 66.6621 60.8191C70.1721 60.8191 72.99 57.7732 72.9933 53.9819C72.9999 50.7836 73.0017 47.5852 72.9988 44.3869ZM58.8402 49.096C58.8402 51.4871 57.4307 52.9921 55.2018 52.9932H47.913C40.7876 52.9932 33.6622 52.9932 26.5369 52.9932C24.7742 52.9932 23.0115 53.0226 21.2488 53.0204C19.9808 53.0204 18.7106 53.0303 17.4459 52.9528C15.7172 52.8436 14.3746 51.2699 14.3658 49.4005C14.357 47.531 14.3658 45.6561 14.3658 43.7834V25.2819C14.3658 23.0349 15.806 21.4742 17.8824 21.4742H36.6052V21.4612H48.0753C50.4534 21.4612 52.8325 21.4699 55.2117 21.4612C57.3879 21.4524 58.838 22.9803 58.8402 25.331C58.8445 31.5975 58.8445 37.8639 58.8402 44.1304C58.8402 45.7856 58.8402 47.4408 58.8402 49.096Z" fill="white"/>
<path d="M72.994 6.50328C72.9933 6.12607 72.9662 5.74937 72.9129 5.37593C72.4829 2.3933 69.7692 0.00654802 66.7922 0C60.5509 0 54.3093 0 48.0673 0C39.2191 0 30.3708 0.00327401 21.5226 0.00982203C16.4166 0.0109134 11.3117 0 6.20569 0.00545668C2.88761 0.00982203 0.0148619 2.91496 -0.00049449 6.25882C-0.00926958 8.60737 -0.00049449 10.9516 -0.00049449 13.3034V13.6886H72.9984V13.2237C72.9984 10.9832 73.0017 8.7427 72.994 6.50328ZM61.3155 3.41698C63.1681 3.40715 64.7323 4.99177 64.729 6.87542C64.729 8.74161 63.178 10.2891 61.3199 10.2859C59.4617 10.2826 57.9195 8.7176 57.9195 6.85796C57.9195 4.99832 59.4771 3.4268 61.3155 3.41698ZM50.4782 3.41698C51.3826 3.4322 52.2441 3.80264 52.875 4.44748C53.5058 5.09232 53.8548 5.95922 53.8457 6.85905C53.8325 8.78199 52.3243 10.2979 50.4344 10.2859C48.5444 10.2738 47.0647 8.71869 47.0812 6.75319C47.0998 4.95467 48.6859 3.39733 50.4826 3.41698H50.4782ZM30.5149 6.72264C30.5489 5.91614 31.0447 5.42722 31.8399 5.42504C33.6176 5.42504 35.3953 5.42504 37.173 5.42504C38.9105 5.42504 40.6479 5.42504 42.3854 5.42504C43.2125 5.42504 43.7071 5.92814 43.7181 6.75319C43.7181 6.99656 43.7181 7.23884 43.7181 7.48221C43.7115 8.43167 43.2322 8.90967 42.2779 8.91077H31.9836C31.0162 8.91077 30.527 8.42076 30.5226 7.45165C30.5215 7.20828 30.5138 6.96491 30.5237 6.72264H30.5149ZM23.5343 3.41807C25.399 3.4017 26.9621 4.99505 26.9522 6.91035C26.9434 8.7427 25.3826 10.2935 23.5519 10.2859C22.648 10.273 21.7853 9.90765 21.1494 9.26842C20.5135 8.6292 20.1552 7.76717 20.1515 6.86778C20.1548 4.99832 21.6882 3.43335 23.5343 3.41807ZM12.6751 3.41807C14.5135 3.39624 16.115 5.02015 16.0886 6.87542C16.0634 8.76889 14.553 10.2848 12.6883 10.288C10.8236 10.2913 9.30769 8.76016 9.30878 6.86669C9.30988 4.97322 10.817 3.43444 12.6751 3.41588V3.41807Z" fill="white"/>
</svg>
