<svg width="64" height="64" viewBox="0 0 64 64" fill="none" xmlns="http://www.w3.org/2000/svg">
<g clip-path="url(#clip0_92_211)">
<path d="M31.9734 63.9993H6.63545C3.20447 63.9993 0.56145 61.7288 0.033686 58.3335C0.00134642 58.055 -0.0098774 57.7744 0.000110534 57.4941C0.000110534 40.4969 0.000110534 23.4996 0.000110534 6.50229C-0.00754406 5.6482 0.154586 4.80109 0.477084 4.01018C0.799581 3.21927 1.27602 2.50032 1.87872 1.89509C2.48142 1.28986 3.19838 0.81041 3.98794 0.484597C4.7775 0.158784 5.62393 -0.00690187 6.47807 -0.00283668C23.4938 -0.00283668 40.5085 -0.00283668 57.5222 -0.00283668C58.3722 -0.00740253 59.2147 0.156177 60.0012 0.478487C60.7877 0.800797 61.5028 1.27547 62.1051 1.8752C62.7075 2.47492 63.1853 3.18785 63.5111 3.97295C63.8368 4.75806 64.0041 5.59983 64.0033 6.44983C64.0033 23.4821 64.0033 40.5143 64.0033 57.5466C64.0038 58.3966 63.8363 59.2383 63.5104 60.0234C63.1845 60.8084 62.7066 61.5213 62.1042 62.121C61.5017 62.7207 60.7867 63.1953 60.0002 63.5177C59.2136 63.84 58.3711 64.0037 57.5211 63.9993C49.0055 63.9993 40.4896 63.9993 31.9734 63.9993ZM35.2102 54.3633V53.6393C35.2102 48.3758 35.2102 43.1125 35.2102 37.8497C35.2102 36.833 35.4054 35.8866 35.9279 34.9948C37.0076 33.1534 39.3956 32.2175 41.4112 32.8879C43.495 33.5825 44.7981 35.4291 44.8002 37.7343C44.8065 43.0678 44.8065 48.4009 44.8002 53.7337V54.3465H54.3608C54.3703 54.1702 54.3829 54.0317 54.3839 53.8964C54.3839 48.0386 54.3912 42.1808 54.3755 36.3231C54.3868 35.5543 54.3165 34.7865 54.1657 34.0326C53.3189 30.1831 51.0557 27.4467 47.4642 25.8572C45.541 25.0062 43.5128 24.682 41.4248 25.2014C38.9896 25.8078 36.9667 27.0596 35.4537 29.0919C35.3755 29.1709 35.2905 29.2429 35.1997 29.307V25.6421H25.6444V54.3601L35.2102 54.3633ZM9.65305 54.3318H19.157V25.6295H9.65305V54.3318ZM20.1454 14.3714C20.0982 11.2238 17.7269 8.64479 14.4029 8.65109C11.079 8.65738 8.64578 11.1524 8.65523 14.4155C8.66572 17.7793 11.2783 20.119 14.3914 20.1389C15.1492 20.1426 15.9001 19.9958 16.6008 19.707C17.3014 19.4183 17.9378 18.9934 18.473 18.4569C19.0082 17.9205 19.4316 17.2831 19.7187 16.5818C20.0058 15.8805 20.1508 15.1292 20.1454 14.3714Z" fill="white"/>
</g>
<defs>
<clipPath id="clip0_92_211">
<rect width="64" height="64" fill="white"/>
</clipPath>
</defs>
</svg>
