<svg width="30" height="40" viewBox="0 0 30 40" fill="none" xmlns="http://www.w3.org/2000/svg">
<path d="M15.0172 39.7585C16.1908 38.4984 17.3266 37.3517 18.3995 36.1389C21.7661 32.3365 24.7898 28.2884 26.9702 23.667C28.4584 20.5168 29.5156 17.2279 29.2702 13.6555C29.0497 10.0862 27.5016 6.72903 24.9312 4.24597C22.3608 1.7629 18.9546 0.334073 15.3841 0.241161C11.8136 0.148248 8.33787 1.398 5.64213 3.74403C2.9464 6.09006 1.22628 9.36213 0.820877 12.9152C0.449608 16.1788 1.18585 19.2787 2.45069 22.2714C4.6783 27.5355 8.02602 32.053 11.7796 36.2901C12.8022 37.4588 13.8845 38.5488 15.0172 39.7585ZM14.9795 9.24197C16.399 9.22767 17.7663 9.77733 18.7819 10.7705C19.7974 11.7637 20.3784 13.1195 20.3975 14.5407C20.4155 15.609 20.1161 16.6586 19.5372 17.5561C18.9583 18.4536 18.126 19.1587 17.1461 19.5817C16.1662 20.0046 15.0828 20.1265 14.0336 19.9317C12.9843 19.737 12.0166 19.2344 11.2532 18.4878C10.4898 17.7413 9.96526 16.7844 9.74614 15.7387C9.52703 14.6931 9.62324 13.6058 10.0226 12.615C10.4219 11.6241 11.1063 10.7745 11.9889 10.1739C12.8714 9.57339 13.9124 9.249 14.9795 9.24197V9.24197Z" fill="white"/>
</svg>
