<svg width="58" height="75" viewBox="0 0 58 75" fill="none" xmlns="http://www.w3.org/2000/svg">
<path d="M58 27.3042C57.9999 22.6218 56.7209 18.0181 54.2857 13.9354C51.8506 9.85276 48.3411 6.4283 44.0947 3.99108C39.8482 1.55387 35.0073 0.185802 30.0372 0.0183274C25.0671 -0.149147 20.1348 0.889599 15.7141 3.03476C11.2935 5.17993 7.53303 8.35942 4.79411 12.2678C2.05519 16.1761 0.429849 20.6819 0.0742389 25.3523C-0.281372 30.0228 0.644702 34.7008 2.76348 38.937C4.88227 43.1732 8.12255 46.8252 12.173 49.5421L2.75779 69.0239L15.4516 60.6073L16.8806 75.0004L26.9741 54.5396C27.6442 54.5831 28.3195 54.6053 29 54.6064C29.6805 54.6075 30.3431 54.5863 30.9879 54.5429L41.0796 75.0004L42.5087 60.6073L55.2024 69.0239L45.7976 49.5633C49.5727 47.0411 52.6507 43.7037 54.7738 39.8309C56.8969 35.958 58.0032 31.6625 58 27.3042ZM29 50.008C24.2287 50.0093 19.5642 48.6783 15.5964 46.1834C11.6287 43.6884 8.53594 40.1416 6.70942 35.9916C4.88289 31.8416 4.40463 27.2747 5.33512 22.8688C6.26562 18.4628 8.56308 14.4156 11.9369 11.2391C15.3107 8.06263 19.6093 5.89955 24.289 5.02348C28.9687 4.14741 33.8192 4.59769 38.227 6.31739C42.6349 8.03709 46.402 10.9489 49.0519 14.6846C51.7019 18.4203 53.1156 22.812 53.1142 27.3042C53.1128 33.3253 50.5718 39.0993 46.0498 43.3568C41.5278 47.6143 35.3951 50.0067 29 50.008Z" fill="white" fill-opacity="0.9"/>
<path d="M29 8.95898C25.1362 8.95899 21.3592 10.0376 18.1465 12.0584C14.9337 14.0792 12.4295 16.9514 10.9503 20.3121C9.47118 23.6727 9.08356 27.3708 9.83646 30.9388C10.5894 34.5069 12.449 37.7846 15.1802 40.3577C17.9114 42.9308 21.3917 44.6837 25.1809 45.3947C28.9701 46.1058 32.8982 45.7432 36.4685 44.3526C40.0388 42.9621 43.0911 40.6061 45.2394 37.5825C47.3877 34.5589 48.5356 31.0035 48.538 27.3657C48.5396 24.949 48.0354 22.5558 47.0543 20.3226C46.0731 18.0895 44.6342 16.0602 42.8198 14.3509C41.0053 12.6415 38.8509 11.2855 36.4797 10.3603C34.1084 9.43517 31.5668 8.95898 29 8.95898V8.95898ZM36.9585 17.3625C34.8962 24.16 30.2543 34.7919 28.654 37.9748C28.3754 38.5254 27.4031 39.0059 26.5778 39.0271C25.7733 39.0466 25.1142 38.5482 24.5934 38.0497C24.3789 37.8461 22.3719 33.7918 20.9446 27.742C20.5432 26.0463 22.0882 25.7873 22.2924 25.7254C23.3823 25.3849 24.7457 26.5398 24.9117 26.8444C26.32 29.4637 26.4256 31.2979 26.737 31.1024C27.4498 30.6545 30.6245 20.7947 33.1626 16.0887C33.391 15.6636 34.673 14.9485 35.6228 15.2743C36.5173 15.5821 37.1211 16.8169 36.9533 17.3674L36.9585 17.3625Z" fill="white" fill-opacity="0.9"/>
<path d="M29 8.95898C25.1362 8.95899 21.3592 10.0376 18.1465 12.0584C14.9337 14.0792 12.4295 16.9514 10.9503 20.3121C9.47118 23.6727 9.08356 27.3708 9.83646 30.9388C10.5894 34.5069 12.449 37.7846 15.1802 40.3577C17.9114 42.9308 21.3917 44.6837 25.1809 45.3947C28.9701 46.1058 32.8982 45.7432 36.4685 44.3526C40.0388 42.9621 43.0911 40.6061 45.2394 37.5825C47.3877 34.5589 48.5356 31.0035 48.538 27.3657C48.5396 24.949 48.0354 22.5558 47.0543 20.3226C46.0731 18.0895 44.6342 16.0602 42.8198 14.3509C41.0053 12.6415 38.8509 11.2855 36.4797 10.3603C34.1084 9.43517 31.5668 8.95898 29 8.95898V8.95898ZM36.9585 17.3625C34.8962 24.16 30.2543 34.7919 28.654 37.9748C28.3754 38.5254 27.4031 39.0059 26.5778 39.0271C25.7733 39.0466 25.1142 38.5482 24.5934 38.0497C24.3789 37.8461 22.3719 33.7918 20.9446 27.742C20.5432 26.0463 22.0882 25.7873 22.2924 25.7254C23.3823 25.3849 24.7457 26.5398 24.9117 26.8444C26.32 29.4637 26.4256 31.2979 26.737 31.1024C27.4498 30.6545 30.6245 20.7947 33.1626 16.0887C33.391 15.6636 34.673 14.9485 35.6228 15.2743C36.5173 15.5821 37.1211 16.8169 36.9533 17.3674L36.9585 17.3625Z" fill="white" fill-opacity="0.9"/>
<path d="M28.8929 8.92859C25.0292 8.92859 21.2522 10.0072 18.0394 12.028C14.8267 14.0488 12.3224 16.921 10.8433 20.2817C9.36413 23.6423 8.9765 27.3404 9.7294 30.9085C10.4823 34.4765 12.3419 37.7542 15.0732 40.3273C17.8044 42.9004 21.2846 44.6533 25.0738 45.3644C28.863 46.0754 32.7911 45.7128 36.3614 44.3222C39.9317 42.9317 42.984 40.5757 45.1323 37.5521C47.2807 34.5285 48.4286 30.9731 48.431 27.3353C48.4326 24.9186 47.9284 22.5254 46.9472 20.2922C45.966 18.0591 44.5271 16.0298 42.7127 14.3205C40.8983 12.6111 38.7439 11.2551 36.3726 10.3299C34.0014 9.40477 31.4597 8.92859 28.8929 8.92859V8.92859ZM36.8514 17.3321C34.7891 24.1296 30.1472 34.7615 28.5469 37.9444C28.2684 38.495 27.296 38.9755 26.4708 38.9967C25.6663 39.0162 25.0071 38.5178 24.4863 38.0193C24.2718 37.8157 22.2649 33.7614 20.8376 27.7116C20.4362 26.0159 21.9812 25.7569 22.1853 25.695C23.2753 25.3545 24.6386 26.5094 24.8047 26.814C26.213 29.4333 26.3185 31.2675 26.6299 31.072C27.3427 30.6241 30.5175 20.7643 33.0555 16.0583C33.2839 15.6332 34.5659 14.9181 35.5158 15.2439C36.4102 15.5517 37.014 16.7865 36.8462 17.337L36.8514 17.3321Z" fill="white" fill-opacity="0.9"/>
</svg>
