<svg width="92" height="50" viewBox="0 0 92 50" fill="none" xmlns="http://www.w3.org/2000/svg">
<path d="M63.3444 49.9752H28.7766C28.7766 42.8599 28.4764 35.8538 28.8686 28.8923C29.1785 23.4381 34.529 21.0581 40.0539 23.805C44.189 25.8577 47.8738 25.7586 52.0042 23.805C58.1197 20.8845 63.0393 23.9686 63.2766 29.7005C63.5574 36.3546 63.3444 43.0434 63.3444 49.9752Z" fill="white" fill-opacity="0.9"/>
<path d="M91.9031 50H65.7557C65.7557 45.7903 65.809 41.6898 65.7557 37.6041C65.7024 33.5184 65.5039 29.4575 65.3586 25.1041C67.0195 24.8215 68.966 24.519 71.0336 25.8776C74.4231 28.1138 78.0498 27.975 81.5119 25.8082C85.8117 23.1208 91.5399 25.6892 91.8159 30.8211C92.1645 37.1231 91.9031 43.4748 91.9031 50Z" fill="white" fill-opacity="0.9"/>
<path d="M26.3943 24.5289V49.9355H0C0 47.977 0 46.0234 0 44.0698C0.048421 39.6073 0 35.1448 0.198526 30.6822C0.397053 26.2197 5.2101 22.9026 10.5558 25.8677C13.9453 27.7568 17.204 27.7717 20.7242 26.1206C22.5448 25.2876 24.6512 25 26.3943 24.5289Z" fill="white" fill-opacity="0.9"/>
<path d="M46.1211 -3.23609e-05C52.2948 -3.23609e-05 57.0739 5.13682 57.0594 11.662C57.0449 18.0632 52.0865 23.2745 46 23.3042C39.9958 23.3042 34.8922 17.974 34.8632 11.6372C34.8326 10.1096 35.1021 8.59128 35.6557 7.1724C36.2093 5.75353 37.0357 4.46303 38.0858 3.37754C39.1359 2.29206 40.3883 1.43373 41.7686 0.853512C43.1489 0.273299 44.6291 -0.0169612 46.1211 -3.23609e-05V-3.23609e-05Z" fill="white" fill-opacity="0.9"/>
<path d="M15.7464 3.91707C21.373 3.88732 25.881 8.58288 25.9149 14.518C25.9633 20.354 21.3536 25.3074 15.8578 25.3322C10.362 25.357 5.72329 20.5375 5.6894 14.6569C5.6555 8.77625 10.1683 3.96666 15.7464 3.91707Z" fill="white" fill-opacity="0.9"/>
<path d="M66.2012 14.523C66.2012 8.42425 70.4865 3.90223 76.234 3.92206C81.9816 3.9419 86.1894 8.5482 86.1894 14.647C86.1604 20.6515 81.725 25.362 76.1324 25.3322C70.5397 25.3025 66.1915 20.5573 66.2012 14.523Z" fill="white" fill-opacity="0.9"/>
</svg>
