<svg width="21" height="21" viewBox="0 0 21 21" fill="none" xmlns="http://www.w3.org/2000/svg">
<path d="M20.6054 16.0826C20.5693 15.7677 20.4618 15.4652 20.2911 15.1981C20.1205 14.9311 19.8912 14.7066 19.6206 14.5416C18.8435 14.0301 18.0711 13.5059 17.261 13.0463C16.7777 12.7625 16.2333 12.5992 15.6737 12.5702C15.114 12.5412 14.5557 12.6472 14.0456 12.8795C13.6224 13.0573 13.2229 13.2934 12.7871 13.4382C12.5463 13.5225 12.284 13.5225 12.0431 13.4382C10.7763 12.8986 9.66016 12.0579 8.7915 10.9891C8.45798 10.5743 8.16261 10.1302 7.909 9.66218C7.79573 9.45231 7.69086 9.24244 7.59438 9.03257C7.53133 8.89008 7.50154 8.7351 7.50726 8.57938C7.51298 8.42365 7.55407 8.27128 7.62741 8.13381C7.9446 7.44777 8.20248 6.73581 8.39823 6.00574C8.40924 5.96009 8.4171 5.91602 8.42497 5.87037C8.51906 5.28558 8.43463 4.68599 8.18271 4.14997C8.0973 3.96116 7.99956 3.77818 7.89012 3.60221C7.53303 3.0277 7.13976 2.48938 6.82357 1.90228C6.18175 0.713894 5.21587 0.238541 3.88976 0.422701C2.45825 0.621027 1.32248 1.2711 0.535934 2.5067C0.150527 3.11427 0.0734459 3.7785 0.106481 4.47265C0.170252 6.6587 0.770451 8.79551 1.85418 10.6947C1.90767 10.7907 1.96272 10.8852 2.01936 10.9796C2.30985 11.4812 2.61608 11.9686 2.93804 12.4419C4.04208 14.0821 5.36885 15.5607 6.8802 16.835C7.29549 17.1844 7.72652 17.5149 8.1717 17.8313C9.38202 18.683 10.6805 19.4017 12.0446 19.9751C13.4456 20.5407 14.9323 20.8648 16.4414 20.9337C18.1718 21.0423 19.3139 20.216 20.1114 18.7868C20.5578 17.9603 20.7308 17.0136 20.6054 16.0826ZM19.0874 17.1309C19.074 17.2483 19.0498 17.3642 19.015 17.4772C18.7004 18.7081 17.7565 19.4431 16.4981 19.399C14.9464 19.3456 13.422 18.976 12.0179 18.313L11.7867 18.2012L11.5774 18.0989C11.3997 18.0108 11.2251 17.9195 11.052 17.8266C10.9283 17.7605 10.8056 17.6928 10.6839 17.6236C10.6163 17.5858 10.5502 17.5464 10.4841 17.5071L10.2167 17.3497C10.2094 17.3464 10.2025 17.3422 10.1963 17.3371C10.1113 17.2867 10.0264 17.2348 9.943 17.1797C9.83446 17.112 9.72749 17.0427 9.62838 16.9719L9.56703 16.9326C9.45534 16.8586 9.34523 16.7752 9.23511 16.7059L9.13129 16.6335L9.02746 16.5595L8.81509 16.4068C8.74588 16.3565 8.67509 16.3045 8.60587 16.2494L8.39823 16.092C8.28968 16.0086 8.18271 15.9236 8.08361 15.8355C8.0317 15.7945 7.98136 15.7521 7.9263 15.7096C7.79101 15.5978 7.65573 15.4829 7.52359 15.3648C7.44022 15.2924 7.36628 15.2185 7.27662 15.1429C7.18695 15.0674 7.14762 15.0249 7.08312 14.9635C7.04852 14.932 7.01234 14.8989 6.97773 14.8643C6.9148 14.8061 6.85345 14.7463 6.7921 14.6849C6.70086 14.5967 6.6112 14.507 6.52153 14.4157C6.43187 14.3244 6.34377 14.2331 6.25568 14.1403C6.16759 14.0474 6.0732 13.9467 5.98354 13.8475C5.89387 13.7483 5.78375 13.6256 5.68622 13.5138C5.58869 13.402 5.51318 13.3139 5.42824 13.2116C5.34329 13.1093 5.25834 13.0085 5.17654 12.9047C5.09474 12.8008 5.01923 12.7126 4.94844 12.6166C4.89811 12.5521 4.84777 12.4875 4.79114 12.4214C4.7345 12.3553 4.66686 12.264 4.60551 12.1727C4.56933 12.1255 4.53315 12.0767 4.49854 12.0279C4.37584 11.8579 4.25471 11.6864 4.13516 11.5116L3.95897 11.2488C3.90077 11.1606 3.84099 11.0709 3.78436 10.9812C3.67582 10.8144 3.57042 10.6459 3.46974 10.4759C3.41154 10.3831 3.35648 10.2886 3.30299 10.1942C3.27311 10.1438 3.24479 10.0935 3.21648 10.0368C3.16614 9.94708 3.1158 9.85736 3.0686 9.76764C3.02141 9.67792 2.98051 9.60079 2.93961 9.5158C2.89871 9.4308 2.85781 9.35839 2.82006 9.27025C2.79646 9.22303 2.77286 9.17581 2.75241 9.12701C2.75168 9.12527 2.7513 9.1234 2.7513 9.1215C2.7513 9.11961 2.75168 9.11774 2.75241 9.116C2.73039 9.06878 2.70837 9.01998 2.68792 8.97276C2.66747 8.92554 2.63129 8.84999 2.60612 8.7886C2.60492 8.78395 2.60492 8.77908 2.60612 8.77443L2.54634 8.63277C2.52904 8.59185 2.51173 8.55092 2.49757 8.51C2.46926 8.43917 2.44094 8.36834 2.4142 8.29751C2.4088 8.28572 2.40407 8.27363 2.40004 8.2613C2.36701 8.17316 2.33555 8.08659 2.30566 7.99844C2.30425 7.99329 2.30425 7.98786 2.30566 7.9827C2.28049 7.9103 2.25689 7.83789 2.2333 7.76549C2.2097 7.69308 2.19869 7.66318 2.18453 7.60809C2.15517 7.51155 2.12685 7.41553 2.09958 7.32004C2.07127 7.2193 2.04295 7.11699 2.01778 7.01626C2.00362 6.96117 1.98947 6.90608 1.97688 6.85885C1.9691 6.83194 1.9628 6.80461 1.95801 6.77701L1.93913 6.69358C1.91396 6.5834 1.89036 6.47165 1.86834 6.35989C1.84632 6.24814 1.82587 6.13323 1.80699 6.0199C1.78811 5.90658 1.77081 5.79167 1.75508 5.67677C1.73935 5.56187 1.72519 5.44696 1.71103 5.33048C1.69845 5.21401 1.68743 5.09596 1.678 4.9779C1.678 4.93068 1.678 4.88346 1.66698 4.83624C1.66698 4.74967 1.6544 4.6631 1.65125 4.57653C1.64811 4.48996 1.64024 4.36404 1.6371 4.26173C1.56001 3.71869 1.84789 3.16936 2.35285 2.71132C2.91212 2.20224 3.6418 1.92143 4.39786 1.92431C4.58658 1.9071 4.77623 1.94508 4.94378 2.03366C5.11134 2.12223 5.24958 2.25759 5.34172 2.42328C5.75387 3.09381 6.19276 3.74702 6.6112 4.41441C6.63951 4.46005 6.66626 4.50413 6.68985 4.54977C6.71345 4.59542 6.73705 4.63949 6.7575 4.68514C6.77522 4.72152 6.79097 4.75882 6.80469 4.79689C6.8245 4.84405 6.84132 4.89242 6.85503 4.9417C6.85963 4.95293 6.86331 4.96451 6.86604 4.97633C6.87432 5.0011 6.88114 5.02632 6.88649 5.05188L6.90537 5.13373C6.90596 5.13896 6.90596 5.14424 6.90537 5.14947C6.91943 5.21908 6.92889 5.28954 6.93368 5.36039C6.93446 5.37402 6.93446 5.38769 6.93368 5.40132C6.94155 5.49296 6.94155 5.58512 6.93368 5.67677C6.93368 5.70195 6.93368 5.72556 6.93368 5.74917V5.7838C6.92679 5.84409 6.91681 5.90398 6.90379 5.96324C6.89593 5.99944 6.88806 6.03722 6.87705 6.07342C6.87065 6.10162 6.86277 6.12947 6.85345 6.15684C6.85345 6.1836 6.83615 6.21194 6.82671 6.24027C6.80783 6.29536 6.78738 6.35202 6.76379 6.40711C6.59075 6.81793 6.39883 7.21931 6.20849 7.62225C6.13418 7.77704 6.07568 7.93893 6.03388 8.10548L6.02444 8.1464C6.01982 8.15912 6.01665 8.17232 6.015 8.18575C6.00285 8.23762 5.99392 8.29018 5.98826 8.34315C5.98676 8.35254 5.98676 8.3621 5.98826 8.37148V8.41556C5.98712 8.41803 5.98654 8.42071 5.98654 8.42343C5.98654 8.42614 5.98712 8.42883 5.98826 8.4313C5.98671 8.44542 5.98671 8.45967 5.98826 8.4738C5.9867 8.47839 5.9867 8.48337 5.98826 8.48796C5.98748 8.50159 5.98748 8.51526 5.98826 8.52889C5.98826 8.56037 5.98826 8.59027 5.98826 8.62018C5.98676 8.74167 5.99783 8.86299 6.02129 8.9822C6.02129 9.00109 6.02129 9.01841 6.0323 9.03729C6.04004 9.07666 6.05002 9.11555 6.06219 9.15377C6.06439 9.16726 6.06808 9.18045 6.0732 9.19312C6.09172 9.25623 6.11378 9.31824 6.13927 9.37886C6.36906 9.94007 6.64586 10.4808 6.96672 10.9954C7.03908 11.115 7.12402 11.2315 7.19481 11.3448C7.21998 11.3842 7.24673 11.4235 7.27504 11.4613C7.37729 11.6092 7.48426 11.7525 7.58966 11.8926C7.63528 11.9508 7.6809 12.009 7.72966 12.0657C7.77843 12.1224 7.79573 12.146 7.83034 12.1853C7.86495 12.2247 7.90585 12.275 7.94675 12.3207C8.02698 12.412 8.10406 12.5033 8.1953 12.5914C8.28654 12.6796 8.3353 12.7362 8.40766 12.8055L8.42182 12.8197L8.52722 12.9204C8.56025 12.9534 8.59329 12.9849 8.6279 13.0148L8.73172 13.1093C8.80251 13.1722 8.87644 13.2352 8.94881 13.2966C9.02117 13.358 9.07465 13.402 9.13915 13.454C9.20365 13.5059 9.25399 13.5469 9.31376 13.5894C9.33369 13.6072 9.35414 13.6229 9.37511 13.6366C9.45377 13.6964 9.534 13.7546 9.6158 13.8113C9.74007 13.901 9.86906 13.986 9.99806 14.0679L10.1239 14.1466C10.1921 14.1885 10.2597 14.2295 10.3268 14.2693C10.4008 14.3134 10.4747 14.3559 10.5502 14.3968C10.5695 14.409 10.5894 14.4201 10.61 14.4299C10.6839 14.4708 10.7673 14.5101 10.8349 14.5495L10.9639 14.6156C11.0489 14.6581 11.1354 14.7006 11.2219 14.74C11.2806 14.7683 11.3389 14.795 11.3965 14.8202C11.4752 14.8564 11.5538 14.8911 11.6372 14.9257C11.9219 15.0483 12.23 15.107 12.5398 15.0977C12.8496 15.0885 13.1536 15.0115 13.4305 14.8722C13.7986 14.699 14.1715 14.5369 14.5317 14.3606C15.3182 13.9781 16.078 14.06 16.8048 14.5353C17.3428 14.8869 17.8839 15.2337 18.4282 15.5758C19.1613 16.0417 19.1581 16.092 19.0874 17.1309Z" fill="#231F20"/>
</svg>

